G04 EAGLE Gerber RS-274X export*
G75*
%MOMM*%
%FSLAX34Y34*%
%LPD*%
%INBottom Copper*%
%IPPOS*%
%AMOC8*
5,1,8,0,0,1.08239X$1,22.5*%
G01*
%ADD10P,0.769796X8X202.500000*%
%ADD11P,1.785944X8X292.500000*%
%ADD12R,1.650000X1.650000*%
%ADD13P,2.435377X8X22.500000*%
%ADD14C,0.403200*%
%ADD15C,0.127000*%


D10*
X19050Y637150D03*
X6350Y637150D03*
X19050Y624450D03*
X19050Y611750D03*
X19050Y599050D03*
X19050Y586350D03*
X19050Y573650D03*
X19050Y560950D03*
X19050Y548250D03*
X19050Y535550D03*
X19050Y522850D03*
X6350Y624450D03*
X6350Y611750D03*
X6350Y599050D03*
X6350Y586350D03*
X6350Y573650D03*
X6350Y560950D03*
X6350Y548250D03*
X6350Y535550D03*
X6350Y522850D03*
X-6350Y637150D03*
X-6350Y624450D03*
X-6350Y611750D03*
X-6350Y599050D03*
X-6350Y586350D03*
X-6350Y573650D03*
X-6350Y560950D03*
X-6350Y548250D03*
X-6350Y535550D03*
X-6350Y522850D03*
X-19050Y637150D03*
X-19050Y624450D03*
X-19050Y611750D03*
X-19050Y599050D03*
X-19050Y586350D03*
X-19050Y573650D03*
X-19050Y560950D03*
X-19050Y548250D03*
X-19050Y535550D03*
X-19050Y522850D03*
X19050Y807150D03*
X6350Y807150D03*
X19050Y794450D03*
X19050Y781750D03*
X19050Y769050D03*
X19050Y756350D03*
X19050Y743650D03*
X19050Y730950D03*
X19050Y718250D03*
X19050Y705550D03*
X19050Y692850D03*
X6350Y794450D03*
X6350Y781750D03*
X6350Y769050D03*
X6350Y756350D03*
X6350Y743650D03*
X6350Y730950D03*
X6350Y718250D03*
X6350Y705550D03*
X6350Y692850D03*
X-6350Y807150D03*
X-6350Y794450D03*
X-6350Y781750D03*
X-6350Y769050D03*
X-6350Y756350D03*
X-6350Y743650D03*
X-6350Y730950D03*
X-6350Y718250D03*
X-6350Y705550D03*
X-6350Y692850D03*
X-19050Y807150D03*
X-19050Y794450D03*
X-19050Y781750D03*
X-19050Y769050D03*
X-19050Y756350D03*
X-19050Y743650D03*
X-19050Y730950D03*
X-19050Y718250D03*
X-19050Y705550D03*
X-19050Y692850D03*
D11*
X80000Y780568D03*
D12*
X80000Y805968D03*
D13*
X100000Y685968D03*
D14*
X89000Y464000D03*
X101000Y495000D03*
X97000Y539000D03*
X100000Y591000D03*
X100000Y636000D03*
X-98000Y601000D03*
X-97000Y527000D03*
X-87000Y456000D03*
X-82000Y474000D03*
X-104000Y697000D03*
X-80000Y773000D03*
X-103000Y835000D03*
X-7000Y844000D03*
X-62000Y833000D03*
X74000Y843000D03*
X22000Y667000D03*
X-21000Y663000D03*
X-31000Y641000D03*
X-105000Y484000D03*
X-94000Y562000D03*
X-96000Y649000D03*
X-102000Y733000D03*
X-101000Y799000D03*
X-69000Y808000D03*
X-69000Y307000D03*
X69000Y310000D03*
X70000Y365000D03*
X71000Y429000D03*
X-70000Y407000D03*
X-70000Y360000D03*
D13*
X100000Y730968D03*
D15*
X-6350Y522850D02*
X-4000Y520500D01*
D14*
X-4000Y247000D03*
D15*
X-4000Y520500D01*
X-12000Y506000D02*
X-8000Y502000D01*
X-12000Y529900D02*
X-6350Y535550D01*
X-12000Y529900D02*
X-12000Y506000D01*
D14*
X-8000Y253000D03*
D15*
X-8000Y502000D01*
X-29000Y518000D02*
X-29000Y537000D01*
X-29000Y518000D02*
X-12000Y501000D01*
X-29000Y537000D02*
X-24000Y542000D01*
X-12600Y542000D01*
X-6350Y548250D01*
D14*
X-12000Y247000D03*
D15*
X-12000Y501000D01*
X-33000Y545000D02*
X-23000Y555000D01*
X-33000Y517000D02*
X-16000Y500000D01*
X-33000Y517000D02*
X-33000Y545000D01*
X-12300Y555000D02*
X-6350Y560950D01*
X-12300Y555000D02*
X-23000Y555000D01*
D14*
X-16000Y253000D03*
D15*
X-16000Y500000D01*
X-37000Y554000D02*
X-23000Y568000D01*
X-37000Y516000D02*
X-20000Y499000D01*
X-37000Y516000D02*
X-37000Y554000D01*
X-12000Y568000D02*
X-6350Y573650D01*
X-12000Y568000D02*
X-23000Y568000D01*
D14*
X-20000Y247000D03*
D15*
X-20000Y499000D01*
X-41000Y515000D02*
X-41000Y563000D01*
X-41000Y515000D02*
X-24000Y498000D01*
X-41000Y563000D02*
X-24000Y580000D01*
X-12700Y580000D01*
X-6350Y586350D01*
D14*
X-24000Y253000D03*
D15*
X-24000Y498000D01*
X-45000Y514000D02*
X-45000Y666900D01*
X-45000Y514000D02*
X-28000Y497000D01*
X-45000Y666900D02*
X-19050Y692850D01*
D14*
X-28000Y247000D03*
D15*
X-28000Y497000D01*
X-49000Y513000D02*
X-49000Y675600D01*
X-49000Y513000D02*
X-32000Y496000D01*
X-32000Y275000D01*
X-32000Y274000D01*
X-49000Y675600D02*
X-19050Y705550D01*
D14*
X-32000Y253000D03*
D15*
X-32000Y274000D01*
X-53000Y512000D02*
X-53000Y684300D01*
X-53000Y512000D02*
X-36000Y495000D01*
X-53000Y684300D02*
X-19050Y718250D01*
D14*
X-36000Y247000D03*
D15*
X-36000Y495000D01*
X-57000Y510000D02*
X-57000Y693000D01*
X-57000Y510000D02*
X-40000Y493000D01*
X-57000Y693000D02*
X-19050Y730950D01*
D14*
X-40000Y253000D03*
D15*
X-40000Y493000D01*
X-61000Y509000D02*
X-61000Y701700D01*
X-61000Y509000D02*
X-44000Y492000D01*
X-61000Y701700D02*
X-19050Y743650D01*
D14*
X-44000Y247000D03*
D15*
X-44000Y492000D01*
X-65000Y508000D02*
X-65000Y710400D01*
X-65000Y508000D02*
X-48000Y491000D01*
X-65000Y710400D02*
X-19050Y756350D01*
D14*
X-48000Y253000D03*
D15*
X-48000Y491000D01*
X-69000Y507000D02*
X-69000Y719100D01*
X-69000Y507000D02*
X-52000Y490000D01*
X-69000Y719100D02*
X-19050Y769050D01*
D14*
X-52000Y247000D03*
D15*
X-52000Y490000D01*
X-73000Y506000D02*
X-73000Y727800D01*
X-73000Y506000D02*
X-56000Y489000D01*
X-73000Y727800D02*
X-19050Y781750D01*
D14*
X-56000Y253000D03*
D15*
X-56000Y489000D01*
X-77000Y505000D02*
X-77000Y736500D01*
X-77000Y505000D02*
X-60000Y488000D01*
X-77000Y736500D02*
X-19050Y794450D01*
D14*
X-60000Y247000D03*
D15*
X-60000Y488000D01*
X-81000Y745200D02*
X-19050Y807150D01*
X-81000Y745200D02*
X-81000Y504000D01*
X-64000Y487000D01*
D14*
X-64000Y253000D03*
D15*
X-64000Y487000D01*
X4000Y499000D02*
X25000Y520000D01*
X25000Y529600D02*
X19050Y535550D01*
X25000Y529600D02*
X25000Y520000D01*
D14*
X4000Y247000D03*
D15*
X4000Y499000D01*
X30000Y520000D02*
X30000Y537300D01*
X30000Y520000D02*
X8000Y498000D01*
X30000Y537300D02*
X19050Y548250D01*
D14*
X8000Y253000D03*
D15*
X8000Y498000D01*
X34000Y518000D02*
X34000Y546000D01*
X34000Y518000D02*
X12000Y496000D01*
X34000Y546000D02*
X19050Y560950D01*
D14*
X12000Y247000D03*
D15*
X12000Y496000D01*
X16000Y495000D02*
X38000Y517000D01*
X16000Y495000D02*
X16000Y274000D01*
X38000Y554700D02*
X19050Y573650D01*
X38000Y554700D02*
X38000Y517000D01*
D14*
X15921Y253000D03*
D15*
X15921Y273921D01*
X16000Y274000D01*
X20000Y494000D02*
X42000Y516000D01*
X42000Y563400D02*
X19050Y586350D01*
X42000Y563400D02*
X42000Y516000D01*
D14*
X20000Y247000D03*
D15*
X20000Y494000D01*
X24000Y493000D02*
X46000Y515000D01*
X46000Y572100D02*
X19050Y599050D01*
X46000Y572100D02*
X46000Y515000D01*
D14*
X24000Y253000D03*
D15*
X24000Y493000D01*
X28000Y492000D02*
X50000Y514000D01*
X50000Y580800D02*
X19050Y611750D01*
X50000Y580800D02*
X50000Y514000D01*
D14*
X28000Y247000D03*
D15*
X28000Y492000D01*
X32000Y491000D02*
X54000Y513000D01*
X54000Y589500D02*
X19050Y624450D01*
X54000Y589500D02*
X54000Y513000D01*
D14*
X32000Y253000D03*
D15*
X32000Y491000D01*
X36000Y490000D02*
X58000Y512000D01*
X58000Y598200D02*
X19050Y637150D01*
X58000Y598200D02*
X58000Y512000D01*
D14*
X36000Y247000D03*
D15*
X36000Y490000D01*
X40000Y489000D02*
X62000Y511000D01*
X10249Y692850D02*
X6350Y692850D01*
X10249Y692850D02*
X16472Y686627D01*
X29342Y686627D01*
X62000Y653968D01*
X62000Y511000D01*
D14*
X40000Y253000D03*
D15*
X40000Y489000D01*
X6419Y705550D02*
X6350Y705550D01*
X6419Y705550D02*
X13000Y698968D01*
X24000Y698968D01*
X66000Y656968D01*
X66000Y510000D02*
X44000Y488000D01*
X66000Y510000D02*
X66000Y656968D01*
D14*
X44000Y247000D03*
D15*
X44000Y488000D01*
X70000Y510000D02*
X70000Y665968D01*
X70000Y510000D02*
X48000Y488000D01*
X70000Y665968D02*
X24000Y711968D01*
X12631Y711968D02*
X6350Y718250D01*
X12631Y711968D02*
X24000Y711968D01*
D14*
X48000Y253000D03*
D15*
X48000Y488000D01*
X12331Y724968D02*
X6350Y730950D01*
X12331Y724968D02*
X24000Y724968D01*
X74000Y674968D01*
X74000Y509000D01*
X52000Y487000D01*
D14*
X52000Y247000D03*
D15*
X52000Y487000D01*
X13031Y736968D02*
X6350Y743650D01*
X13031Y736968D02*
X24000Y736968D01*
X78000Y682968D01*
X78000Y508000D01*
X56000Y486000D01*
D14*
X56000Y253000D03*
D15*
X56000Y486000D01*
X12731Y749968D02*
X6350Y756350D01*
X12731Y749968D02*
X24000Y749968D01*
X82000Y691968D02*
X82000Y507000D01*
X60000Y485000D01*
X82000Y691968D02*
X24000Y749968D01*
D14*
X60000Y247000D03*
D15*
X60000Y485000D01*
X19050Y522850D02*
X0Y503800D01*
D14*
X0Y253000D03*
D15*
X0Y503800D01*
M02*
