M48
;GenerationSoftware,Autodesk,EAGLE,9.6.2*%
;CreationDate,2025-09-24T11:51:04Z*%
FMAT,2
ICI,OFF
METRIC,TZ,000.000
T4C0.200
T3C0.406
T2C1.100
T1C1.500
%
G90
M71
T1
X10000Y68597
X10000Y73097
T2
X8000Y78057
X8000Y80597
T3
X-635Y63715
X-635Y62445
X-635Y61175
X-635Y59905
X-635Y58635
X-635Y57365
X-635Y56095
X-635Y53555
X-635Y52285
X-1905Y63715
X-1905Y62445
X-1905Y61175
X-1905Y59905
X-1905Y58635
X-1905Y57365
X-1905Y56095
X-1905Y54825
X-635Y54825
X-1905Y53555
X-1905Y52285
X1905Y80715
X635Y80715
X1905Y79445
X1905Y78175
X1905Y76905
X1905Y74365
X1905Y73095
X1905Y71825
X1905Y70555
X1905Y69285
X635Y79445
X635Y78175
X635Y76905
X635Y75635
X635Y74365
X635Y73095
X635Y71825
X635Y70555
X635Y69285
X-635Y80715
X-635Y79445
X-635Y78175
X-635Y75635
X-635Y74365
X-635Y73095
X-635Y71825
X-635Y70555
X-635Y69285
X-1905Y80715
X-1905Y79445
X-1905Y78175
X-1905Y76905
X-1905Y75635
X1905Y53555
X-1905Y74365
X-1905Y73095
X-1905Y71825
X-1905Y70555
X-1905Y69285
X-635Y76905
X1905Y63715
X635Y63715
X1905Y62445
X1905Y61175
X1905Y59905
X1905Y58635
X1905Y57365
X1905Y56095
X1905Y54825
X1905Y75635
X1905Y52285
X635Y62445
X635Y61175
X635Y59905
X635Y58635
X635Y57365
X635Y56095
X635Y54825
X635Y53555
X635Y52285
T4
X8900Y46400
X10100Y49500
X9700Y53900
X10000Y59100
X10000Y63600
X-9800Y60100
X-9700Y52700
X-8700Y45600
X-8200Y47400
X-10400Y69700
X-8000Y77300
X-10300Y83500
X-700Y84400
X-6200Y83300
X7400Y84300
X2200Y66700
X-2100Y66300
X-10500Y48400
X-9400Y56200
X-9600Y64900
X-10200Y73300
X-10100Y79900
X-6900Y80800
X-6900Y30700
X6900Y31000
X7000Y36500
X7100Y42900
X-7000Y40700
X-7000Y36000
X-400Y24700
X-800Y25300
X-1200Y24700
X-1600Y25300
X-2000Y24700
X-2400Y25300
X-2800Y24700
X-3200Y25300
X-3600Y24700
X-4000Y25300
X-4400Y24700
X-4800Y25300
X-5200Y24700
X-5600Y25300
X-6000Y24700
X-6400Y25300
X400Y24700
X800Y25300
X1200Y24700
X1592Y25300
X2000Y24700
X2400Y25300
X2800Y24700
X3600Y24700
X4000Y25300
X4400Y24700
X4800Y25300
X5200Y24700
X5600Y25300
X-3100Y64100
X0Y25300
X6000Y24700
X3200Y25300
M30