G04 EAGLE Gerber RS-274X export*
G75*
%MOMM*%
%FSLAX34Y34*%
%LPD*%
%INSoldermask Bottom*%
%IPPOS*%
%AMOC8*
5,1,8,0,0,1.08239X$1,22.5*%
G01*
%ADD10P,0.989737X8X202.500000*%
%ADD11P,2.005885X8X292.500000*%
%ADD12R,1.853200X1.853200*%
%ADD13P,2.655319X8X22.500000*%


D10*
X19050Y637150D03*
X6350Y637150D03*
X19050Y624450D03*
X19050Y611750D03*
X19050Y599050D03*
X19050Y586350D03*
X19050Y573650D03*
X19050Y560950D03*
X19050Y548250D03*
X19050Y535550D03*
X19050Y522850D03*
X6350Y624450D03*
X6350Y611750D03*
X6350Y599050D03*
X6350Y586350D03*
X6350Y573650D03*
X6350Y560950D03*
X6350Y548250D03*
X6350Y535550D03*
X6350Y522850D03*
X-6350Y637150D03*
X-6350Y624450D03*
X-6350Y611750D03*
X-6350Y599050D03*
X-6350Y586350D03*
X-6350Y573650D03*
X-6350Y560950D03*
X-6350Y548250D03*
X-6350Y535550D03*
X-6350Y522850D03*
X-19050Y637150D03*
X-19050Y624450D03*
X-19050Y611750D03*
X-19050Y599050D03*
X-19050Y586350D03*
X-19050Y573650D03*
X-19050Y560950D03*
X-19050Y548250D03*
X-19050Y535550D03*
X-19050Y522850D03*
X19050Y807150D03*
X6350Y807150D03*
X19050Y794450D03*
X19050Y781750D03*
X19050Y769050D03*
X19050Y756350D03*
X19050Y743650D03*
X19050Y730950D03*
X19050Y718250D03*
X19050Y705550D03*
X19050Y692850D03*
X6350Y794450D03*
X6350Y781750D03*
X6350Y769050D03*
X6350Y756350D03*
X6350Y743650D03*
X6350Y730950D03*
X6350Y718250D03*
X6350Y705550D03*
X6350Y692850D03*
X-6350Y807150D03*
X-6350Y794450D03*
X-6350Y781750D03*
X-6350Y769050D03*
X-6350Y756350D03*
X-6350Y743650D03*
X-6350Y730950D03*
X-6350Y718250D03*
X-6350Y705550D03*
X-6350Y692850D03*
X-19050Y807150D03*
X-19050Y794450D03*
X-19050Y781750D03*
X-19050Y769050D03*
X-19050Y756350D03*
X-19050Y743650D03*
X-19050Y730950D03*
X-19050Y718250D03*
X-19050Y705550D03*
X-19050Y692850D03*
D11*
X80000Y780568D03*
D12*
X80000Y805968D03*
D13*
X100000Y685968D03*
X100000Y730968D03*
M02*
