G04 EAGLE Gerber RS-274X export*
G75*
%MOMM*%
%FSLAX34Y34*%
%LPD*%
%INSolderpaste Top*%
%IPPOS*%
%AMOC8*
5,1,8,0,0,1.08239X$1,22.5*%
G01*
%ADD10R,0.230000X0.750000*%
%ADD11R,0.350000X0.750000*%


D10*
X-68000Y234150D03*
X-64000Y234150D03*
X-60000Y234150D03*
X-56000Y234150D03*
X-52000Y234150D03*
X-48000Y234150D03*
X-44000Y234150D03*
X-40000Y234150D03*
X-36000Y234150D03*
X-32000Y234150D03*
X-28000Y234150D03*
X-24000Y234150D03*
X-20000Y234150D03*
X-16000Y234150D03*
X-12000Y234150D03*
X-8000Y234150D03*
X-4000Y234150D03*
X0Y234150D03*
X4000Y234150D03*
X8000Y234150D03*
X12000Y234150D03*
X16000Y234150D03*
X20000Y234150D03*
X24000Y234150D03*
X28000Y234150D03*
X32000Y234150D03*
X36000Y234150D03*
X40000Y234150D03*
X44000Y234150D03*
X48000Y234150D03*
X52000Y234150D03*
X56000Y234150D03*
X60000Y234150D03*
X64000Y234150D03*
X68000Y234150D03*
X68000Y265850D03*
X64000Y265850D03*
X60000Y265850D03*
X56000Y265850D03*
X52000Y265850D03*
X48000Y265850D03*
X44000Y265850D03*
X40000Y265850D03*
X36000Y265850D03*
X32000Y265850D03*
X28000Y265850D03*
X24000Y265850D03*
X20000Y265850D03*
X16000Y265850D03*
X12000Y265850D03*
X8000Y265850D03*
X4000Y265850D03*
X0Y265850D03*
X-4000Y265850D03*
X-8000Y265850D03*
X-12000Y265850D03*
X-16000Y265850D03*
X-20000Y265850D03*
X-24000Y265850D03*
X-28000Y265850D03*
X-32000Y265850D03*
X-36000Y265850D03*
X-40000Y265850D03*
X-44000Y265850D03*
X-48000Y265850D03*
X-52000Y265850D03*
X-56000Y265850D03*
X-60000Y265850D03*
X-64000Y265850D03*
X-68000Y265850D03*
D11*
X72750Y265850D03*
X72750Y234150D03*
X-72750Y234150D03*
X-72750Y265850D03*
M02*
